<svg viewBox="0 0 50 50" xmlns="http://www.w3.org/2000/svg">
    <g fill="#232323" transform="scale(.5)">
        <path
            d="m69.8 38.3c0 1.9 1.5 3.4 3.4 3.4s3.4-1.5 3.4-3.4-1.5-3.4-3.4-3.4c-1.9.1-3.4 1.6-3.4 3.4zm-13.3 22.1c0 1.9 1.5 3.4 3.4 3.4s3.4-1.5 3.4-3.4-1.5-3.4-3.4-3.4-3.4 1.5-3.4 3.4zm-19.2-17c0 1.9 1.5 3.4 3.4 3.4s3.4-1.5 3.4-3.4-1.5-3.4-3.4-3.4c-1.9.1-3.4 1.6-3.4 3.4z"/>
        <path
            d="m24.4 53.9c1.3 0 2.5.3 3.6.8l5.4-7.2c-.7-1.2-1.1-2.6-1.1-4.1 0-4.6 3.7-8.3 8.3-8.3s8.3 3.7 8.3 8.3c0 1-.2 1.9-.5 2.7l8 6.6c1-.5 2.2-.7 3.4-.7.6 0 1.2.1 1.8.2l5.4-8.3c-1.3-1.5-2.2-3.4-2.2-5.6 0-4.6 3.7-8.3 8.3-8.3 4 0 7.3 2.8 8.1 6.5h11.7c-5.7-18.2-22.7-31.5-42.9-31.5-24.9 0-45 20.1-45 45 0 1.1.1 2.2.1 3.2 3 1.2 8 3.1 12.1 4.6 1.5-2.3 4.1-3.9 7.2-3.9z"/>
        <path
            d="m94.2 41.4h-13.3c-1.2 3-4.2 5.2-7.7 5.2-.8 0-1.5-.1-2.2-.3l-5.4 8c1.6 1.5 2.6 3.6 2.6 6 0 4.6-3.7 8.3-8.3 8.3s-8.3-3.7-8.3-8.3c0-1.4.3-2.7 1-3.9l-7.4-6.1c-1.3.9-2.9 1.4-4.5 1.4-1.3 0-2.5-.3-3.6-.8l-5.4 7.2c.7 1.2 1.1 2.6 1.1 4.1 0 4.6-3.7 8.3-8.3 8.3-4.4 0-8-3.4-8.3-7.7-3.6-1.4-7.5-2.9-10.2-3.9 4 20.5 22.2 36.1 44 36.1 24.9 0 45-20.1 45-45 0-2.9-.3-5.8-.8-8.6z"/>
        <path d="m21 62.2c0 1.9 1.5 3.4 3.4 3.4s3.4-1.5 3.4-3.4-1.5-3.4-3.4-3.4-3.4 1.5-3.4 3.4z"/>
    </g>
</svg>
